<svg width="353" height="298" viewBox="0 0 353 298" fill="none" xmlns="http://www.w3.org/2000/svg">
<g clip-path="url(#clip0_223_1940)">
<path d="M219.716 293.259L201.678 290.834L201.779 290.082L219.817 292.508C224.003 293.07 228.386 291.15 230.981 287.612L231.594 288.061C228.839 291.823 224.173 293.858 219.716 293.259Z" fill="#007CFF" stroke="black" stroke-width="0.379179" stroke-miterlimit="10"/>
<path d="M198.208 289.603L190.82 288.609L190.719 289.361L198.107 290.354L198.208 289.603Z" fill="#007CFF" stroke="black" stroke-width="0.379179" stroke-miterlimit="10"/>
<path d="M220.069 290.628L9.02176 262.251C4.06124 261.584 0.901604 257.027 2.00452 252.125L30.9904 122.881C32.0933 117.979 37.0509 114.514 42.0114 115.181L253.059 143.558C258.019 144.225 261.179 148.782 260.076 153.684L231.083 282.927C229.98 287.829 225.022 291.294 220.062 290.627L220.069 290.628Z" fill="#CD89FF" stroke="black" stroke-width="0.758357" stroke-miterlimit="10"/>
<path d="M216.042 287.293L10.2554 259.624C6.0314 259.056 3.33958 255.174 4.27581 250.999L30.6892 133.262C30.9581 132.059 32.1653 131.218 33.3829 131.382L250.112 160.523C251.33 160.687 252.1 161.793 251.831 162.996L225.417 280.734C224.481 284.908 220.258 287.86 216.034 287.292L216.042 287.293Z" fill="white" stroke="black" stroke-width="0.379179" stroke-miterlimit="10"/>
<path d="M55.1563 125.833C54.8471 127.222 53.3629 128.018 52.0415 127.488C47.4746 125.657 44.8535 120.852 46.0027 115.719C47.358 109.68 53.4385 105.432 59.5489 106.254C64.7499 106.953 68.3245 111.099 68.4403 116.042C68.4713 117.462 67.2127 118.571 65.8072 118.382C64.7174 118.235 63.882 117.335 63.8076 116.238C63.6117 113.426 61.528 111.111 58.5442 110.71C54.9215 110.223 51.3161 112.737 50.5123 116.325C49.848 119.273 51.2898 122.038 53.8423 123.2C54.8445 123.656 55.3951 124.74 55.1584 125.818L55.1563 125.833Z" fill="white" stroke="black" stroke-width="0.379179" stroke-linecap="round" stroke-linejoin="round"/>
<path d="M99.7633 131.831C99.454 133.221 97.9698 134.016 96.6484 133.486C92.0815 131.655 89.4604 126.85 90.6097 121.717C91.9649 115.678 98.0379 111.429 104.156 112.252C109.357 112.951 112.931 117.097 113.047 122.04C113.078 123.46 111.82 124.569 110.414 124.38C109.324 124.233 108.489 123.333 108.414 122.236C108.219 119.424 106.135 117.109 103.151 116.708C99.521 116.22 95.923 118.735 95.1192 122.323C94.455 125.271 95.8957 128.044 98.4492 129.198C99.4515 129.654 100.002 130.739 99.7653 131.816L99.7633 131.831Z" fill="white" stroke="black" stroke-width="0.379179" stroke-linecap="round" stroke-linejoin="round"/>
<path d="M144.371 137.829C144.061 139.219 142.577 140.014 141.256 139.484C136.689 137.653 134.068 132.848 135.217 127.715C136.572 121.676 142.645 117.427 148.763 118.25C153.964 118.949 157.539 123.095 157.655 128.038C157.686 129.458 156.427 130.567 155.022 130.378C153.932 130.231 153.096 129.331 153.022 128.234C152.826 125.422 150.742 123.107 147.759 122.706C144.128 122.218 140.53 124.733 139.727 128.321C139.062 131.27 140.503 134.042 143.057 135.196C144.059 135.652 144.609 136.737 144.373 137.814L144.371 137.829Z" fill="white" stroke="black" stroke-width="0.379179" stroke-linecap="round" stroke-linejoin="round"/>
<path d="M188.978 143.827C188.668 145.217 187.184 146.012 185.863 145.482C181.296 143.651 178.675 138.846 179.824 133.713C181.179 127.674 187.252 123.425 193.37 124.248C198.571 124.947 202.146 129.093 202.269 134.037C202.3 135.457 201.042 136.566 199.636 136.377C198.546 136.23 197.711 135.33 197.636 134.233C197.441 131.422 195.357 129.106 192.373 128.705C188.75 128.218 185.145 130.732 184.341 134.32C183.677 137.269 185.119 140.033 187.671 141.195C188.673 141.652 189.224 142.736 188.987 143.813L188.985 143.828L188.978 143.827Z" fill="white" stroke="black" stroke-width="0.379179" stroke-linecap="round" stroke-linejoin="round"/>
<path d="M233.585 149.825C233.276 151.215 231.792 152.01 230.47 151.48C225.903 149.649 223.282 144.844 224.431 139.711C225.787 133.672 231.86 129.423 237.978 130.246C243.179 130.945 246.753 135.091 246.869 140.034C246.9 141.454 245.641 142.563 244.236 142.374C243.146 142.227 242.311 141.327 242.236 140.23C242.04 137.419 239.957 135.103 236.973 134.702C233.35 134.215 229.745 136.729 228.941 140.317C228.277 143.266 229.718 146.03 232.271 147.192C233.273 147.649 233.824 148.733 233.587 149.81L233.585 149.825Z" fill="white" stroke="black" stroke-width="0.379179" stroke-linecap="round" stroke-linejoin="round"/>
<path d="M216.227 281.817L12.7932 254.464C12.5828 254.435 12.4547 254.25 12.498 254.041L38.2743 139.164C38.3176 138.956 38.5277 138.816 38.7307 138.843L242.157 166.195C242.367 166.224 242.496 166.409 242.452 166.618L216.683 281.496C216.64 281.704 216.43 281.844 216.227 281.817ZM13.3377 253.772L216.012 281.023L241.612 166.887L38.9378 139.636L13.3377 253.772Z" fill="#E1E1E1" stroke="black" stroke-width="0.379179" stroke-miterlimit="10"/>
<path d="M221.375 258.842L17.9483 231.49C17.7379 231.461 17.6098 231.276 17.6531 231.067C17.6965 230.859 17.9066 230.719 18.1095 230.746L221.536 258.099C221.746 258.127 221.874 258.313 221.831 258.521C221.788 258.729 221.578 258.869 221.375 258.842Z" fill="#E1E1E1" stroke="black" stroke-width="0.379179" stroke-miterlimit="10"/>
<path d="M226.529 235.868L23.1031 208.515C22.8927 208.487 22.7646 208.301 22.8079 208.093C22.8513 207.884 23.0614 207.744 23.2643 207.772L226.691 235.124C226.901 235.152 227.029 235.338 226.986 235.546C226.943 235.755 226.732 235.895 226.529 235.868Z" fill="#E1E1E1" stroke="black" stroke-width="0.379179" stroke-miterlimit="10"/>
<path d="M231.685 212.895L28.2584 185.542C28.048 185.514 27.9199 185.329 27.9632 185.12C28.0065 184.912 28.2167 184.772 28.4196 184.799L231.846 212.151C232.056 212.18 232.184 212.365 232.141 212.574C232.098 212.782 231.888 212.922 231.685 212.895Z" fill="#E1E1E1" stroke="black" stroke-width="0.379179" stroke-miterlimit="10"/>
<path d="M236.841 189.913L33.4147 162.56C33.2042 162.532 33.0761 162.346 33.1195 162.138C33.1628 161.929 33.3729 161.789 33.5758 161.816L237.002 189.169C237.213 189.197 237.341 189.383 237.297 189.591C237.254 189.8 237.044 189.94 236.841 189.913Z" fill="#E1E1E1" stroke="black" stroke-width="0.379179" stroke-miterlimit="10"/>
<path d="M190.793 278.397C190.583 278.369 190.455 278.183 190.498 277.975L216.267 163.097C216.31 162.888 216.52 162.748 216.723 162.775C216.926 162.803 217.062 162.989 217.018 163.198L191.25 278.076C191.206 278.284 190.996 278.424 190.793 278.397Z" fill="#E1E1E1" stroke="black" stroke-width="0.379179" stroke-miterlimit="10"/>
<path d="M165.366 274.979C165.156 274.951 165.028 274.765 165.071 274.557L190.84 159.679C190.883 159.47 191.093 159.33 191.296 159.357C191.499 159.385 191.635 159.571 191.592 159.78L165.823 274.658C165.78 274.866 165.569 275.006 165.366 274.979Z" fill="#E1E1E1" stroke="black" stroke-width="0.379179" stroke-miterlimit="10"/>
<path d="M139.94 271.559C139.73 271.531 139.602 271.345 139.645 271.137L165.414 156.259C165.457 156.05 165.667 155.91 165.87 155.938C166.073 155.965 166.209 156.151 166.165 156.36L140.397 271.238C140.353 271.446 140.143 271.587 139.94 271.559Z" fill="#E1E1E1" stroke="black" stroke-width="0.379179" stroke-miterlimit="10"/>
<path d="M114.514 268.141C114.303 268.113 114.175 267.927 114.219 267.719L139.987 152.841C140.031 152.632 140.241 152.492 140.444 152.52C140.647 152.547 140.782 152.733 140.739 152.942L114.97 267.82C114.927 268.028 114.717 268.169 114.514 268.141Z" fill="#E1E1E1" stroke="black" stroke-width="0.379179" stroke-miterlimit="10"/>
<path d="M89.0798 264.721C88.8694 264.693 88.7413 264.507 88.7846 264.299L114.553 149.421C114.597 149.212 114.807 149.072 115.01 149.1C115.213 149.127 115.348 149.313 115.305 149.522L89.5362 264.4C89.4929 264.609 89.2828 264.749 89.0798 264.721Z" fill="#E1E1E1" stroke="black" stroke-width="0.379179" stroke-miterlimit="10"/>
<path d="M63.6536 261.301C63.4431 261.273 63.315 261.088 63.3584 260.879L89.1271 146.001C89.1704 145.793 89.3806 145.652 89.5835 145.68C89.7864 145.707 89.922 145.894 89.8787 146.102L64.1099 260.98C64.0666 261.189 63.8565 261.329 63.6536 261.301Z" fill="#E1E1E1" stroke="black" stroke-width="0.379179" stroke-miterlimit="10"/>
<path d="M38.2273 257.883C38.0168 257.855 37.8888 257.67 37.9321 257.461L63.7008 142.583C63.7442 142.375 63.9543 142.234 64.1572 142.262C64.3602 142.289 64.4958 142.476 64.4524 142.684L38.6837 257.562C38.6403 257.771 38.4302 257.911 38.2273 257.883Z" fill="#E1E1E1" stroke="black" stroke-width="0.379179" stroke-miterlimit="10"/>
<path d="M151.049 199.298L135.514 197.209C134.184 197.03 133.351 195.824 133.643 194.509L136.7 180.879C136.991 179.563 138.308 178.646 139.638 178.825L155.174 180.914C156.504 181.093 157.337 182.299 157.045 183.614L153.988 197.244C153.697 198.559 152.38 199.477 151.049 199.298Z" fill="#007CFF" stroke="black" stroke-width="0.379179" stroke-miterlimit="10"/>
<path d="M151.049 199.298L135.514 197.209C134.184 197.03 133.351 195.824 133.643 194.509L136.7 180.879C136.991 179.563 138.308 178.646 139.638 178.825L155.174 180.914C156.504 181.093 157.337 182.299 157.045 183.614L153.988 197.244C153.697 198.559 152.38 199.477 151.049 199.298Z" fill="#DF64C1" stroke="black" stroke-width="0.758357" stroke-miterlimit="10"/>
<path d="M259.452 213.873L243.112 211.676L247.236 193.3L263.568 195.496L256.185 203.969L259.452 213.873Z" fill="#E0FF70" stroke="black" stroke-width="0.758357" stroke-miterlimit="10"/>
<path d="M196.612 229.091L181.076 227.002C179.746 226.823 178.913 225.617 179.205 224.302L182.262 210.672C182.554 209.356 183.871 208.439 185.201 208.618L200.736 210.707C202.067 210.886 202.899 212.092 202.608 213.407L199.551 227.037C199.259 228.352 197.942 229.27 196.612 229.091Z" fill="#007CFF" stroke="black" stroke-width="0.379179" stroke-miterlimit="10"/>
<path d="M196.612 229.091L181.076 227.002C179.746 226.823 178.913 225.617 179.205 224.302L182.262 210.672C182.554 209.356 183.871 208.439 185.201 208.618L200.736 210.707C202.067 210.886 202.899 212.092 202.608 213.407L199.551 227.037C199.259 228.352 197.942 229.27 196.612 229.091Z" fill="#DF64C1" stroke="black" stroke-width="0.758357" stroke-miterlimit="10"/>
<path d="M232.634 186.602L191.379 181.054C190.049 180.876 189.216 179.669 189.508 178.354L192.565 164.724C192.856 163.409 194.173 162.492 195.504 162.671L236.759 168.218C238.089 168.397 238.922 169.603 238.63 170.918L235.573 184.548C235.281 185.863 233.964 186.78 232.634 186.602Z" fill="#1FFFB4" stroke="black" stroke-width="0.758357" stroke-miterlimit="10"/>
<path d="M65.3845 184.581C59.1162 183.739 54.1908 180.819 51.0639 176.075C47.041 169.972 47.231 163.095 51.5714 158.131C57.9941 150.769 72.5087 148.329 81.5099 150.756C81.7088 150.813 81.8113 151.018 81.7389 151.215C81.6666 151.412 81.4444 151.527 81.2445 151.477C72.4647 149.111 58.3611 151.454 52.1382 158.582C47.2434 164.199 48.7146 171.069 51.7209 175.628C55.9219 182.001 62.5942 183.709 67.4498 184.017C76.6977 184.611 87.4433 180.722 94.1766 174.351C96.0614 172.569 99.058 169.061 97.9724 165.64C96.3648 160.581 88.8204 159.895 82.428 159.862C82.221 159.865 82.0608 159.69 82.0806 159.486C82.1004 159.283 82.2835 159.116 82.498 159.114C86.7646 159.137 96.7512 159.186 98.7133 165.365C99.9234 169.17 96.7134 172.955 94.6967 174.864C87.7964 181.397 76.8015 185.374 67.3413 184.768C66.6813 184.725 66.0244 184.66 65.393 184.575L65.3845 184.581Z" fill="#007CFF" stroke="black" stroke-width="0.379179" stroke-miterlimit="10"/>
<path d="M187.804 223.691C187.804 223.691 187.759 223.685 187.736 223.682C187.499 223.627 187.306 223.464 187.231 223.232C186.413 220.773 185.644 219.154 184.731 217.975C184.483 217.659 184.569 217.188 184.911 216.921C185.261 216.654 185.737 216.695 185.986 217.012C186.866 218.148 187.61 219.61 188.363 221.693C191.104 219.521 194.236 217.455 197.707 215.542C198.088 215.326 198.553 215.449 198.735 215.803C198.925 216.157 198.764 216.618 198.383 216.827C194.639 218.894 191.292 221.138 188.442 223.502C188.26 223.653 188.029 223.722 187.804 223.691Z" fill="white" stroke="black" stroke-width="0.379179" stroke-miterlimit="10"/>
<path d="M153.443 269.757C148.791 269.131 145.843 264.878 146.875 260.281C147.906 255.683 152.534 252.449 157.186 253.074C161.839 253.7 164.787 257.953 163.755 262.55C162.724 267.148 158.096 270.382 153.443 269.757ZM156.849 254.559C153.023 254.045 149.223 256.702 148.378 260.483C147.533 264.264 149.955 267.758 153.773 268.271C157.591 268.784 161.4 266.128 162.245 262.347C163.09 258.566 160.667 255.073 156.849 254.559Z" fill="#007CFF" stroke="black" stroke-width="0.379179" stroke-miterlimit="10"/>
<path d="M87.442 213.448C82.7897 212.823 79.8417 208.57 80.8731 203.972C81.9045 199.374 86.5326 196.14 91.1849 196.766C95.8373 197.391 98.7853 201.644 97.7539 206.242C96.7225 210.84 92.0944 214.074 87.442 213.448ZM90.8475 198.251C87.0219 197.736 83.2214 200.393 82.3763 204.174C81.5312 207.955 83.9538 211.449 87.7719 211.962C91.59 212.476 95.3981 209.82 96.2432 206.039C97.0883 202.258 94.6656 198.764 90.8475 198.251Z" fill="#007CFF" stroke="black" stroke-width="0.379179" stroke-miterlimit="10"/>
</g>
<path d="M268.954 64.6393L272.721 86.1908C272.721 86.1908 295.067 102.119 323.839 93.38C323.839 93.38 335.913 90.8079 340.019 86.7021L346.374 63.9707L268.954 64.6393Z" fill="#D0DCFF" stroke="black" stroke-width="0.786554" stroke-miterlimit="10"/>
<path d="M307.054 68.942C329.156 68.942 347.073 62.568 347.073 54.7054C347.073 46.8427 329.156 40.4688 307.054 40.4688C284.951 40.4688 267.034 46.8427 267.034 54.7054C267.034 62.568 284.951 68.942 307.054 68.942Z" fill="black"/>
<path d="M307.156 72.7096C285.266 72.7096 262 66.4014 262 54.7054C262 43.0093 285.266 36.7012 307.156 36.7012C329.046 36.7012 352.312 43.0093 352.312 54.7054C352.312 66.4014 329.046 72.7096 307.156 72.7096ZM307.156 41.7272C296.05 41.7272 285.652 43.2846 277.865 46.1162C271.085 48.5781 267.034 51.7873 267.034 54.7054C267.034 57.6235 271.085 60.8326 277.865 63.2946C285.652 66.1262 296.05 67.6835 307.156 67.6835C318.262 67.6835 328.66 66.1262 336.447 63.2946C343.227 60.8326 347.278 57.6235 347.278 54.7054C347.278 51.7873 343.227 48.5781 336.447 46.1162C328.66 43.2846 318.262 41.7272 307.156 41.7272Z" fill="white" stroke="black" stroke-width="0.786554" stroke-miterlimit="10"/>
<path d="M308.217 69.092C311.592 68.9897 314.942 68.7931 318.34 68.4391C320.905 68.1717 323.296 67.7941 325.734 66.9289C327.582 66.2761 329.391 65.5131 331.224 64.8288C331.877 63.7748 332.325 62.4299 332.506 60.6916C333.867 47.5561 335.236 34.4128 336.596 21.2773C327.944 26.6259 317.782 28.9934 307.745 28.8204C301.39 28.7103 295.074 27.6013 288.97 25.7686C285.777 24.809 275.969 18.6424 276.85 25.918C277.754 33.3982 278.659 40.8783 279.563 48.3584C280.145 53.1643 279.099 64.3176 284.66 65.5682C292.069 67.2357 299.825 68.5807 307.557 69.0526C307.777 69.0684 307.997 69.0762 308.217 69.0841V69.092Z" fill="#8385F2" stroke="black" stroke-width="0.589915" stroke-miterlimit="10"/>
<path d="M306.691 32.824C326.487 32.824 342.535 25.6999 342.535 16.912C342.535 8.12405 326.487 1 306.691 1C286.896 1 270.848 8.12405 270.848 16.912C270.848 25.6999 286.896 32.824 306.691 32.824Z" fill="white" stroke="black" stroke-width="0.786554" stroke-miterlimit="10"/>
<path d="M306.834 28.8201C324.479 28.8201 338.783 23.4462 338.783 16.8173C338.783 10.1883 324.479 4.81445 306.834 4.81445C289.188 4.81445 274.884 10.1883 274.884 16.8173C274.884 23.4462 289.188 28.8201 306.834 28.8201Z" fill="black"/>
<defs>
<clipPath id="clip0_223_1940">
<rect width="252.806" height="164.374" fill="white" transform="translate(21.9043 101) rotate(7.65802)"/>
</clipPath>
</defs>
</svg>
