<svg width="92" height="119" viewBox="0 0 92 119" fill="none" xmlns="http://www.w3.org/2000/svg">
<path d="M64.5468 9.08789L56.0645 58.0562L42.7227 71.398L53.0092 13.1523L64.5468 9.08789Z" fill="#8385F2" stroke="black" stroke-width="0.465036" stroke-miterlimit="10"/>
<path d="M91.1052 70.6953L85.9852 106.308L72.7363 118.301L78.3539 83.3164L91.1052 70.6953Z" fill="#D0DCFF" stroke="black" stroke-width="0.465036" stroke-miterlimit="10"/>
<path d="M72.7364 118.301L1 94.3978L17.2111 6.29211L53.0096 13.1514L17.2111 6.29211L30.0461 1L64.5471 9.08698L56.0649 58.0552L42.723 71.3971L78.354 83.316" fill="#8385F2"/>
<path d="M72.7364 118.301L1 94.3978L17.2111 6.29211L53.0096 13.1514L17.2111 6.29211L30.0461 1L64.5471 9.08698L56.0649 58.0552L42.723 71.3971L78.354 83.316" stroke="black" stroke-width="0.465036" stroke-miterlimit="10"/>
<path d="M56.0645 58.0547L91.105 70.6943L78.3537 83.3154L42.7227 71.3965L56.0645 58.0547Z" fill="#D0DCFF" stroke="black" stroke-width="0.465036" stroke-miterlimit="10"/>
<path d="M64.5468 9.08789L53.0092 13.1523L42.7227 71.398L56.0645 58.0562L64.5468 9.08789Z" fill="#8385F2" stroke="black" stroke-width="0.465036" stroke-miterlimit="10"/>
</svg>
