<svg width="131" height="146" viewBox="0 0 131 146" fill="none" xmlns="http://www.w3.org/2000/svg">
<g clip-path="url(#clip0_223_1514)">
<path d="M23.8193 21.2441L95.5874 49.9528L111.58 74.5531L26.2786 40.1084L23.8193 21.2441Z" fill="#E745A0" stroke="black" stroke-width="0.723323" stroke-miterlimit="10"/>
<path d="M126.126 0.708984L178.661 19.9928L192.636 44.0216L141.214 24.1808L126.126 0.708984Z" fill="#E745A0" stroke="black" stroke-width="0.723323" stroke-miterlimit="10"/>
<path d="M192.635 44.0216L133.113 145.46L4.28915 92.3685L26.2782 40.1084L4.28915 92.3685L0.375977 71.1317L23.8189 21.2441L95.587 49.9528L111.58 74.5531L141.214 24.1808" fill="#E745A0"/>
<path d="M192.635 44.0216L133.113 145.46L4.28915 92.3685L26.2782 40.1084L4.28915 92.3685L0.375977 71.1317L23.8189 21.2441L95.587 49.9528L111.58 74.5531L141.214 24.1808" stroke="black" stroke-width="0.723323" stroke-miterlimit="10"/>
<path d="M95.5869 49.9528L126.126 0.708984L141.214 24.1808L111.58 74.553L95.5869 49.9528Z" fill="#E745A0" stroke="black" stroke-width="0.723323" stroke-miterlimit="10"/>
<path d="M23.8193 21.2441L26.2786 40.1084L111.58 74.5531L95.5874 49.9528L23.8193 21.2441Z" fill="#E745A0" stroke="black" stroke-width="0.723323" stroke-miterlimit="10"/>
</g>
<defs>
<clipPath id="clip0_223_1514">
<rect width="193.46" height="145.916" fill="white"/>
</clipPath>
</defs>
</svg>
